ply
format ascii 1.0
comment VCGLIB generated
element vertex 97
property float x
property float y
property float z
property float nx
property float ny
property float nz
element face 190
property list uchar int vertex_indices
end_header
0 0.1 -0.2 0.09799336 2.985561 -30 
0 0.1 0.2 -0.1896824 5.778584 1.05989 
0.019509 0.098079 -0.2 0.6786119 2.909053 -1 
0.019509 0.098079 0.2 0.9412714 5.70454 1.059892 
0.038268 0.092388 -0.2 1.23309 2.720782 -2 
0.038268 0.092388 0.2 2.036199 5.411273 1.059897 
0.055557 0.083147 -0.2 1.740142 2.427974 -2 
0.055557 0.083147 0.2 3.052615 4.910138 1.059899 
0.070711 0.070711 -0.2 2.180425 2.041776 -2 
0.070711 0.070711 0.2 3.95188 4.220233 1.059903 
0.083147 0.055557 -0.2 2.536874 1.577156 -2 
0.083147 0.055557 0.2 4.699362 3.368071 1.059901 
0.092388 0.038268 -0.2 2.795791 1.052009 -2 
0.092388 0.038268 0.2 5.266094 2.386679 1.059897 
0.098079 0.019509 -0.2 2.947307 0.486296 -2 
0.098079 0.019509 0.2 5.630496 1.313496 1.059894 
0.1 0 -0.2 2.985561 -0.09799336 -2 
0.1 -0 0.2 5.778584 0.1896824 1.05989 
0.098079 -0.019509 -0.2 2.909053 -0.6786119 -2 
0.098079 -0.019509 0.2 5.70454 -0.9412714 1.059892 
0.092388 -0.038268 -0.2 2.720782 -1.23309 -2 
0.092388 -0.038268 0.2 5.411273 -2.036199 1.059897 
0.083147 -0.055557 -0.2 2.427974 -1.740142 -2 
0.083147 -0.055557 0.2 4.910138 -3.052615 1.059899 
0.070711 -0.070711 -0.2 2.041776 -2.180425 -2 
0.070711 -0.070711 0.2 4.220233 -3.95188 1.059903 
0.055557 -0.083147 -0.2 1.577156 -2.536874 -2 
0.055557 -0.083147 0.2 3.368072 -4.699361 1.059901 
0.038268 -0.092388 -0.2 1.052009 -2.795791 -2 
0.038268 -0.092388 0.2 2.386679 -5.266094 1.059897 
0.019509 -0.098079 -0.2 0.486296 -2.947307 -2 
0.019509 -0.098079 0.2 1.313496 -5.630496 1.059894 
-0 -0.1 -0.2 -0.09799336 -2.985561 -2 
-0 -0.1 0.2 0.1896824 -5.778584 1.05989 
-0.019509 -0.098079 -0.2 -0.6786119 -2.909053 -2 
-0.019509 -0.098079 0.2 -0.9412714 -5.70454 1.059892 
-0.038268 -0.092388 -0.2 -1.23309 -2.720782 -2 
-0.038268 -0.092388 0.2 -2.036199 -5.411273 1.059897 
-0.055557 -0.083147 -0.2 -1.740142 -2.427974 -2 
-0.055557 -0.083147 0.2 -3.052615 -4.910138 1.059899 
-0.070711 -0.070711 -0.2 -2.180425 -2.041776 -2 
-0.070711 -0.070711 0.2 -3.95188 -4.220233 1.059903 
-0.083147 -0.055557 -0.2 -2.536874 -1.577156 -2 
-0.083147 -0.055557 0.2 -4.699362 -3.368071 1.059901 
-0.092388 -0.038268 -0.2 -2.795791 -1.052009 -2 
-0.092388 -0.038268 0.2 -5.266094 -2.386679 1.059897 
-0.098079 -0.019509 -0.2 -2.947307 -0.486296 -2 
-0.098079 -0.019509 0.2 -5.630496 -1.313496 1.059894 
-0.1 0 -0.2 -2.985561 0.09799336 -2 
-0.1 0 0.2 -5.778584 -0.1896824 1.05989 
-0.098079 0.019509 -0.2 -2.909053 0.6786119 -2 
-0.098079 0.019509 0.2 -5.70454 0.9412714 1.059892 
-0.092388 0.038268 -0.2 -2.720782 1.23309 -2 
-0.092388 0.038268 0.2 -5.411281 2.036186 1.059896 
-0.083147 0.055557 -0.2 -2.427974 1.740142 -2 
-0.083147 0.055557 0.2 -4.910141 3.052605 1.059895 
-0.070711 0.070711 -0.2 -2.041776 2.180425 -2 
-0.070711 0.070711 0.2 -4.220208 3.951913 1.059899 
-0.055557 0.083147 -0.2 -1.577156 2.536874 -2 
-0.055557 0.083147 0.2 -3.368071 4.699362 1.059901 
-0.038268 0.092388 -0.2 -1.052009 2.795791 -2 
-0.038268 0.092388 0.2 -2.386679 5.266094 1.059897 
-0.019509 0.098079 -0.2 -0.486296 2.947307 -1 
-0.019509 0.098079 0.2 -1.313496 5.630496 1.059894 
0 0.048753 0.335047 0.09168903 2.796614 1.060817 
0.009511 0.047816 0.335047 0.6355845 2.724966 1.060822 
0.018657 0.045041 0.335047 1.154964 2.54863 1.060825 
0.027085 0.040536 0.335047 1.629925 2.274374 1.060829 
0.034473 0.034473 0.335047 2.042347 1.912644 1.060831 
0.040536 0.027085 0.335047 2.376251 1.477454 1.060827 
0.045041 0.018657 0.335047 2.618801 0.9855651 1.060824 
0.047816 0.009511 0.335047 2.760756 0.4556762 1.060819 
0.048753 0 0.335047 2.796614 -0.09168903 1.060817 
0.047816 -0.009511 0.335047 2.724966 -0.6355845 1.060822 
0.045041 -0.018657 0.335047 2.54863 -1.154964 1.060825 
0.040536 -0.027085 0.335047 2.274374 -1.629925 1.060829 
0.034473 -0.034473 0.335047 1.912644 -2.042347 1.060831 
0.027085 -0.040536 0.335047 1.477454 -2.376251 1.060827 
0.018657 -0.045041 0.335047 0.9855651 -2.618801 1.060824 
0.009511 -0.047816 0.335047 0.4556762 -2.760756 1.060819 
-0 -0.048753 0.335047 -0.09168903 -2.796614 1.060817 
-0.009511 -0.047816 0.335047 -0.6355845 -2.724966 1.060822 
-0.018657 -0.045041 0.335047 -1.154964 -2.54863 1.060825 
-0.027085 -0.040536 0.335047 -1.629925 -2.274374 1.060829 
-0.034473 -0.034473 0.335047 -2.042347 -1.912644 1.060831 
-0.040536 -0.027085 0.335047 -2.376251 -1.477454 1.060827 
-0.045041 -0.018657 0.335047 -2.618801 -0.9855651 1.060824 
-0.047816 -0.009511 0.335047 -2.760756 -0.4556762 1.060819 
-0.048753 0 0.335047 -2.796614 0.09168903 1.060817 
-0.047816 0.009511 0.335047 -2.724966 0.6355845 1.060822 
-0.045041 0.018657 0.335047 -2.548645 1.154938 1.060822 
-0.040536 0.027086 0.335047 -2.274357 1.629945 1.060823 
-0.034473 0.034473 0.335047 -1.912631 2.042364 1.060829 
-0.027085 0.040536 0.335047 -1.477454 2.376251 1.060827 
-0.018657 0.045041 0.335047 -0.9855651 2.618801 1.060824 
-0.009511 0.047816 0.335047 -0.4556762 2.760756 1.060819 
-0 0 0.523875 1.164153e-10 8.731149e-11 0.01483809 
3 0 1 3 
3 0 3 2 
3 2 3 5 
3 2 5 4 
3 4 5 7 
3 4 7 6 
3 6 7 9 
3 6 9 8 
3 8 9 11 
3 8 11 10 
3 10 11 13 
3 10 13 12 
3 12 13 15 
3 12 15 14 
3 14 15 17 
3 14 17 16 
3 16 17 19 
3 16 19 18 
3 18 19 21 
3 18 21 20 
3 20 21 23 
3 20 23 22 
3 22 23 25 
3 22 25 24 
3 24 25 27 
3 24 27 26 
3 26 27 29 
3 26 29 28 
3 28 29 31 
3 28 31 30 
3 30 31 33 
3 30 33 32 
3 32 33 35 
3 32 35 34 
3 34 35 37 
3 34 37 36 
3 36 37 39 
3 36 39 38 
3 38 39 41 
3 38 41 40 
3 40 41 43 
3 40 43 42 
3 42 43 45 
3 42 45 44 
3 44 45 47 
3 44 47 46 
3 46 47 49 
3 46 49 48 
3 48 49 51 
3 48 51 50 
3 50 51 53 
3 50 53 52 
3 52 53 55 
3 52 55 54 
3 54 55 57 
3 54 57 56 
3 56 57 59 
3 56 59 58 
3 58 59 61 
3 58 61 60 
3 55 53 90 
3 55 90 91 
3 60 61 63 
3 60 63 62 
3 62 63 1 
3 62 1 0 
3 0 2 4 
3 0 4 6 
3 0 6 8 
3 0 8 10 
3 0 10 12 
3 0 12 14 
3 0 14 16 
3 0 16 18 
3 0 18 20 
3 0 20 22 
3 0 22 24 
3 0 24 26 
3 0 26 28 
3 0 28 30 
3 0 30 32 
3 0 32 34 
3 0 34 36 
3 0 36 38 
3 0 38 40 
3 0 40 42 
3 0 42 44 
3 0 44 46 
3 0 46 48 
3 0 48 50 
3 0 50 52 
3 0 52 54 
3 0 54 56 
3 0 56 58 
3 0 58 60 
3 0 60 62 
3 76 75 96 
3 11 9 68 
3 11 68 69 
3 29 27 77 
3 29 77 78 
3 47 45 86 
3 47 86 87 
3 3 1 64 
3 3 64 65 
3 1 63 95 
3 1 95 64 
3 21 19 73 
3 21 73 74 
3 39 37 82 
3 39 82 83 
3 57 55 91 
3 57 91 92 
3 13 11 69 
3 13 69 70 
3 31 29 78 
3 31 78 79 
3 49 47 87 
3 49 87 88 
3 5 3 65 
3 5 65 66 
3 23 21 74 
3 23 74 75 
3 41 39 83 
3 41 83 84 
3 59 57 92 
3 59 92 93 
3 15 13 70 
3 15 70 71 
3 33 31 79 
3 33 79 80 
3 51 49 88 
3 51 88 89 
3 7 5 66 
3 7 66 67 
3 25 23 75 
3 25 75 76 
3 43 41 84 
3 43 84 85 
3 61 59 93 
3 61 93 94 
3 17 15 71 
3 17 71 72 
3 35 33 80 
3 35 80 81 
3 53 51 89 
3 53 89 90 
3 9 7 67 
3 9 67 68 
3 27 25 76 
3 27 76 77 
3 45 43 85 
3 45 85 86 
3 63 61 94 
3 63 94 95 
3 19 17 72 
3 19 72 73 
3 37 35 81 
3 37 81 82 
3 90 89 96 
3 77 76 96 
3 91 90 96 
3 78 77 96 
3 65 64 96 
3 92 91 96 
3 79 78 96 
3 66 65 96 
3 93 92 96 
3 80 79 96 
3 67 66 96 
3 94 93 96 
3 81 80 96 
3 68 67 96 
3 95 94 96 
3 82 81 96 
3 69 68 96 
3 64 95 96 
3 83 82 96 
3 70 69 96 
3 84 83 96 
3 71 70 96 
3 85 84 96 
3 72 71 96 
3 86 85 96 
3 73 72 96 
3 87 86 96 
3 74 73 96 
3 88 87 96 
3 75 74 96 
3 89 88 96 
